<svg width="280" height="280" viewBox="0 0 280 280" fill="none" xmlns="http://www.w3.org/2000/svg">
<path d="M37.7386 182.26C41.7787 201.419 53.0059 207.309 62.0577 205.132C79.5628 200.923 123.089 200.61 162.835 227.361C215.477 262.791 234.543 227.372 223.259 185.946C211.974 144.52 212.837 104.875 237.772 87.5119C262.706 70.1491 241.24 31.9126 185.996 57.5054C150.296 74.0445 128.007 64.8242 116.705 56.2314C106.053 48.1317 94.1344 39.5217 81.0113 42.1368C65.0876 45.3107 56.8996 57.0152 74.2582 89.6909C98.8569 135.996 28.6828 139.316 37.7386 182.26Z" fill="#DCFCE7"/>
<path d="M142.567 177.812L144.051 179.572L143.605 193.316L83.345 205.389C82.9004 205.478 82.4426 205.479 81.9976 205.392C81.5526 205.304 81.1293 205.13 80.7517 204.879C80.3741 204.628 80.0497 204.305 79.7971 203.928C79.5444 203.551 79.3684 203.129 79.2791 202.684L61.6521 114.703C61.5621 114.259 61.5608 113.801 61.6482 113.357C61.7356 112.912 61.9101 112.489 62.1616 112.112C62.4131 111.735 62.7366 111.411 63.1135 111.159C63.4905 110.908 63.9135 110.733 64.3582 110.646L128.543 97.7774L125.734 107.565C125.734 107.565 130.871 117.252 131.865 118.824L127.142 139.252L141.092 153.066L136.668 170.783L142.567 177.812Z" fill="#4ADE80"/>
<path d="M133.35 155.602L83.5173 165.588C83.3657 165.619 83.2674 165.766 83.2978 165.918L84.769 173.259C84.7994 173.411 84.947 173.509 85.0986 173.479L134.931 163.492C135.083 163.462 135.181 163.314 135.151 163.163L133.68 155.821C133.649 155.67 133.502 155.571 133.35 155.602Z" fill="white"/>
<path d="M136.668 170.783L142.566 177.812L89.5694 188.429C89.1206 188.518 88.6548 188.426 88.2739 188.172C87.893 187.919 87.6278 187.525 87.5363 187.077L86.6368 182.573C86.5913 182.351 86.5902 182.121 86.6337 181.899C86.6771 181.676 86.7642 181.464 86.8899 181.275C87.0156 181.086 87.1774 180.924 87.3661 180.798C87.5548 180.671 87.7665 180.584 87.9892 180.54L136.668 170.783Z" fill="white"/>
<path d="M244.395 99.07L221.206 185.742C220.967 186.626 220.389 187.379 219.597 187.837C218.805 188.295 217.864 188.421 216.979 188.188L148.521 169.871L155.864 158.564L155.038 155.67L152.457 146.65L152.459 146.641L164.597 133.177L157.856 113.404L171.194 97.8681L170.592 83.6966L178.02 77.7313L241.96 94.8369C242.843 95.0764 243.596 95.6566 244.052 96.4501C244.509 97.2436 244.632 98.1857 244.395 99.07Z" fill="#4ADE80"/>
<path d="M229.312 100.391L216.854 97.0577C213.866 96.2582 210.796 98.0321 209.997 101.02L206.663 113.477C205.864 116.465 207.637 119.535 210.625 120.335L223.083 123.668C226.07 124.468 229.141 122.694 229.94 119.706L233.274 107.249C234.073 104.261 232.299 101.191 229.312 100.391Z" fill="white"/>
<path d="M166.532 152.198L165.35 156.636C165.231 157.078 164.941 157.455 164.545 157.684C164.149 157.913 163.678 157.976 163.236 157.859L155.037 155.67L152.456 146.649L165.316 150.087C165.536 150.145 165.741 150.246 165.921 150.383C166.101 150.521 166.252 150.693 166.365 150.889C166.478 151.086 166.551 151.302 166.579 151.527C166.608 151.752 166.592 151.98 166.532 152.198Z" fill="white"/>
<path d="M139.851 92.4036C139.524 92.0477 139.349 91.5791 139.361 91.0963C139.373 90.6135 139.571 90.1542 139.915 89.815L152.611 76.7861C153.37 76.0078 154.602 75.9893 155.322 76.7456L156.326 77.7997C157.047 78.5557 156.965 79.7823 156.146 80.4976L142.446 92.4725C142.088 92.7975 141.618 92.9718 141.135 92.959C140.651 92.9461 140.191 92.7472 139.851 92.4036Z" fill="#16A34A"/>
<path d="M132.352 87.9352C132.211 87.8701 132.084 87.7777 131.978 87.6635C131.873 87.5492 131.791 87.4152 131.737 87.2692C131.683 87.1232 131.658 86.9681 131.664 86.8126C131.671 86.6571 131.707 86.5043 131.772 86.363L136.529 75.5158C136.663 75.2057 136.914 74.9612 137.227 74.8361C137.541 74.7109 137.891 74.7153 138.201 74.8483L139.077 75.2442C139.226 75.3133 139.359 75.4126 139.468 75.5357C139.577 75.6589 139.659 75.8032 139.709 75.9597C139.759 76.1162 139.776 76.2814 139.76 76.4449C139.743 76.6083 139.692 76.7665 139.611 76.9095L133.979 87.3613C133.83 87.6439 133.579 87.8599 133.278 87.9662C132.977 88.0725 132.646 88.0615 132.352 87.9352Z" fill="#16A34A"/>
<path d="M124.456 89.6919C123.458 89.8673 122.501 89.0185 122.285 87.7677L118.456 65.5598C118.228 64.2332 118.919 62.9725 119.978 62.7864L121.453 62.5273C122.512 62.3414 123.511 63.305 123.651 64.647L126.004 87.1142C126.137 88.3795 125.454 89.5166 124.456 89.6919Z" fill="#16A34A"/>
</svg>
