<?xml version="1.0" encoding="UTF-8" standalone="no" ?>
<!DOCTYPE svg PUBLIC "-//W3C//DTD SVG 1.1//EN" "http://www.w3.org/Graphics/SVG/1.1/DTD/svg11.dtd">
<svg xmlns="http://www.w3.org/2000/svg" xmlns:xlink="http://www.w3.org/1999/xlink" version="1.1" width="1080" height="1080" viewBox="0 0 1080 1080" xml:space="preserve">
<desc>Created with Fabric.js 5.2.4</desc>
<defs>
</defs>
<g transform="matrix(1 0 0 1 540 540)" id="c7787217-e2bc-4138-b16f-c6cacb7c7597"  >
</g>
<g transform="matrix(1 0 0 1 540 540)" id="7f5f11ae-90d2-413c-a0cd-beacdeadaa7f"  >
<rect style="stroke: none; stroke-width: 1; stroke-dasharray: none; stroke-linecap: butt; stroke-dashoffset: 0; stroke-linejoin: miter; stroke-miterlimit: 4; fill: rgb(255,255,255); fill-rule: nonzero; opacity: 1; visibility: hidden;" vector-effect="non-scaling-stroke"  x="-540" y="-540" rx="0" ry="0" width="1080" height="1080" />
</g>
<g transform="matrix(4.74 0 0 4.74 566.67 478.79)"  >
<g style="" vector-effect="non-scaling-stroke"   >
		<g transform="matrix(0.13 0 0 -0.13 -65.35 -1.51)"  >
<path style="stroke: none; stroke-width: 1; stroke-dasharray: none; stroke-linecap: butt; stroke-dashoffset: 0; stroke-linejoin: miter; stroke-miterlimit: 4; fill: rgb(22,101,52); fill-rule: nonzero; opacity: 1;" vector-effect="non-scaling-stroke"  transform=" translate(-415, -445)" d="M 230 656 L 230 623 L 304 618 C 376 613 430 593 430 570 C 430 564 388 560 330 560 C 237 560 230 559 230 540 C 230 521 237 520 330 520 C 385 520 430 516 430 511 C 430 506 418 492 404 481 C 382 464 363 460 304 460 L 230 460 L 230 422 C 230 388 238 376 323 292 L 415 200 L 485 200 L 555 200 L 467 288 C 419 336 380 379 380 383 C 380 387 393 390 409 390 C 450 390 502 429 525 478 C 541 513 549 520 572 520 C 593 520 600 525 600 540 C 600 556 593 560 570 560 C 545 560 537 566 523 598 C 514 618 504 638 502 643 C 500 647 521 650 549 650 C 593 650 600 653 600 670 C 600 689 593 690 415 690 L 230 690 L 230 656 z" stroke-linecap="round" />
</g>
		<g transform="matrix(0.13 0 0 -0.13 -26.2 -4.12)"  >
<path style="stroke: none; stroke-width: 1; stroke-dasharray: none; stroke-linecap: butt; stroke-dashoffset: 0; stroke-linejoin: miter; stroke-miterlimit: 4; fill: rgb(22,101,52); fill-rule: nonzero; opacity: 1;" vector-effect="non-scaling-stroke"  transform=" translate(-704.82, -470)" d="M 681 486 C 665 466 678 440 705 440 C 718 440 731 447 734 456 C 741 475 724 500 705 500 C 698 500 687 494 681 486 z" stroke-linecap="round" />
</g>
		<g transform="matrix(0.13 0 0 -0.13 84.89 -4.12)"  >
<path style="stroke: none; stroke-width: 1; stroke-dasharray: none; stroke-linecap: butt; stroke-dashoffset: 0; stroke-linejoin: miter; stroke-miterlimit: 4; fill: rgb(22,101,52); fill-rule: nonzero; opacity: 1;" vector-effect="non-scaling-stroke"  transform=" translate(-1537.87, -469.98)" d="M 1514 486 C 1504 460 1518 438 1542 442 C 1559 444 1565 452 1565 470 C 1565 488 1559 496 1542 498 C 1529 500 1517 495 1514 486 z" stroke-linecap="round" />
</g>
		<g transform="matrix(0.13 0 0 -0.13 -3.75 12.81)"  >
<path style="stroke: none; stroke-width: 1; stroke-dasharray: none; stroke-linecap: butt; stroke-dashoffset: 0; stroke-linejoin: miter; stroke-miterlimit: 4; fill: rgb(22,101,52); fill-rule: nonzero; opacity: 1;" vector-effect="non-scaling-stroke"  transform=" translate(-875, -340)" d="M 920 434 C 920 379 920 379 898 394 C 865 417 823 414 795 385 C 774 365 770 351 770 300 C 770 249 774 235 795 215 C 824 186 874 182 902 207 C 919 222 920 222 920 207 C 920 195 929 190 950 190 L 980 190 L 980 340 L 980 490 L 950 490 C 920 490 920 490 920 434 z M 902 343 C 936 312 916 240 873 240 C 844 240 830 260 830 300 C 830 357 864 377 902 343 z" stroke-linecap="round" />
</g>
		<g transform="matrix(0.13 0 0 -0.13 28.87 12.9)"  >
<path style="stroke: none; stroke-width: 1; stroke-dasharray: none; stroke-linecap: butt; stroke-dashoffset: 0; stroke-linejoin: miter; stroke-miterlimit: 4; fill: rgb(22,101,52); fill-rule: nonzero; opacity: 1;" vector-effect="non-scaling-stroke"  transform=" translate(-1119.67, -339.33)" d="M 1170 435 C 1170 379 1170 379 1148 394 C 1097 430 1037 404 1020 340 C 992 237 1073 153 1148 206 C 1168 220 1170 220 1170 205 C 1170 193 1177 190 1198 192 L 1225 195 L 1225 340 L 1225 485 L 1198 488 C 1170 491 1170 491 1170 435 z M 1159 326 C 1171 300 1171 293 1159 271 C 1139 235 1105 232 1085 264 C 1068 289 1071 321 1093 348 C 1110 369 1144 357 1159 326 z" stroke-linecap="round" />
</g>
		<g transform="matrix(0.13 0 0 -0.13 62.4 12.81)"  >
<path style="stroke: none; stroke-width: 1; stroke-dasharray: none; stroke-linecap: butt; stroke-dashoffset: 0; stroke-linejoin: miter; stroke-miterlimit: 4; fill: rgb(22,101,52); fill-rule: nonzero; opacity: 1;" vector-effect="non-scaling-stroke"  transform=" translate(-1371, -340)" d="M 1270 340 L 1270 190 L 1300 190 L 1329 190 L 1332 266 C 1334 326 1339 345 1353 354 C 1365 362 1375 362 1388 354 C 1401 345 1406 326 1408 266 L 1411 190 L 1441 190 L 1472 190 L 1468 279 C 1466 349 1461 372 1446 389 C 1423 414 1374 417 1348 393 C 1331 378 1330 379 1330 433 C 1330 490 1330 490 1300 490 L 1270 490 L 1270 340 z" stroke-linecap="round" />
</g>
		<g transform="matrix(0.13 0 0 -0.13 -26.15 18.28)"  >
<path style="stroke: none; stroke-width: 1; stroke-dasharray: none; stroke-linecap: butt; stroke-dashoffset: 0; stroke-linejoin: miter; stroke-miterlimit: 4; fill: rgb(22,101,52); fill-rule: nonzero; opacity: 1;" vector-effect="non-scaling-stroke"  transform=" translate(-705, -300)" d="M 680 300 L 680 190 L 705 190 L 730 190 L 730 300 L 730 410 L 705 410 L 680 410 L 680 300 z" stroke-linecap="round" />
</g>
		<g transform="matrix(0.13 0 0 -0.13 85.23 18.2)"  >
<path style="stroke: none; stroke-width: 1; stroke-dasharray: none; stroke-linecap: butt; stroke-dashoffset: 0; stroke-linejoin: miter; stroke-miterlimit: 4; fill: rgb(22,101,52); fill-rule: nonzero; opacity: 1;" vector-effect="non-scaling-stroke"  transform=" translate(-1540.5, -300.5)" d="M 1510 301 L 1510 190 L 1540 190 L 1571 190 L 1568 298 L 1565 405 L 1538 408 L 1510 411 L 1510 301 z" stroke-linecap="round" />
</g>
</g>
</g>
<g transform="matrix(NaN NaN NaN NaN 0 0)"  >
<g style=""   >
</g>
</g>
</svg>